<mxfile host="app.diagrams.net" modified="2024-05-29T18:42:52.929Z" agent="Mozilla/5.0 (Windows NT 10.0; Win64; x64) AppleWebKit/537.36 (KHTML, like Gecko) Chrome/125.0.0.0 Safari/537.36" version="24.4.4" etag="9mc5_BhTnUR3uzcr-UVH" type="github">
  <diagram name="Page-1" id="dYHpgIoh0OSFnbPjg0Ja">
    <mxGraphModel>
      <root>
        <mxCell id="0" />
        <mxCell id="1" parent="0" />
      </root>
    </mxGraphModel>
  </diagram>
</mxfile>
